<svg width="39" height="27" viewBox="0 0 39 27" fill="none" xmlns="http://www.w3.org/2000/svg">
<path d="M38.75 23.625V3.375C38.75 1.5075 37.2425 0 35.375 0H3.85254C1.98504 0 0.477539 1.5075 0.477539 3.375V23.625C0.477539 25.4925 1.98504 27 3.85254 27H35.375C37.2425 27 38.75 25.4925 38.75 23.625ZM35.8025 3.1275C36.545 3.87 36.14 4.635 35.735 5.0175L26.6 13.3875L35.375 22.5225C35.645 22.8375 35.825 23.3325 35.51 23.67C35.2175 24.03 34.5425 24.0075 34.25 23.7825L24.4175 15.39L19.6025 19.7775L14.81 15.39L4.97754 23.7825C4.68504 24.0075 4.01004 24.03 3.71754 23.67C3.40254 23.3325 3.58254 22.8375 3.85254 22.5225L12.6275 13.3875L3.49254 5.0175C3.08754 4.635 2.68254 3.87 3.42504 3.1275C4.16754 2.385 4.93254 2.745 5.56254 3.285L19.6025 14.625L33.665 3.285C34.295 2.745 35.06 2.385 35.8025 3.1275Z" fill="#92592F"/>
</svg>
