<svg width="45" height="45" viewBox="0 0 45 45" fill="none" xmlns="http://www.w3.org/2000/svg">
<g clip-path="url(#clip0_181_518)">
<path d="M22.5 0C9.82512 0 0 9.28441 0 21.825C0 28.3846 2.68822 34.0527 7.06641 37.9679C7.43379 38.2968 7.65563 38.7577 7.67074 39.2507L7.79326 43.2533C7.83246 44.5298 9.151 45.3605 10.3192 44.8448L14.7851 42.873C15.1636 42.7062 15.5882 42.6751 15.987 42.785C18.0392 43.3492 20.2233 43.6498 22.5 43.6498C35.1749 43.6498 45 34.3654 45 21.8248C45 9.28424 35.1749 0 22.5 0Z" fill="#92592F"/>
<path d="M8.9887 28.2076L15.5981 17.7217C16.6492 16.0536 18.9007 15.6382 20.4781 16.8212L25.7349 20.764C25.9696 20.94 26.2554 21.0348 26.5488 21.034C26.8423 21.0331 27.1275 20.9367 27.3612 20.7592L34.4606 15.3712C35.4081 14.6521 36.6452 15.786 36.011 16.7924L29.4016 27.2784C28.3503 28.9464 26.0987 29.3618 24.5214 28.1788L19.2645 24.236C19.0298 24.06 18.7441 23.9653 18.4507 23.9661C18.1574 23.967 17.8722 24.0634 17.6385 24.2407L10.5387 29.6288C9.59128 30.3477 8.3543 29.2139 8.9887 28.2076Z" fill="white"/>
</g>
<defs>
<clipPath id="clip0_181_518">
<rect width="45" height="45" fill="white"/>
</clipPath>
</defs>
</svg>
