<svg width="45" height="45" viewBox="0 0 45 45" fill="none" xmlns="http://www.w3.org/2000/svg">
<path d="M12.4125 20.2312C15.1125 25.5375 19.4625 29.8875 24.7687 32.5875L28.8937 28.4625C29.4187 27.9375 30.15 27.7875 30.8063 27.9938C32.9062 28.6875 35.1562 29.0625 37.5 29.0625C37.9973 29.0625 38.4742 29.26 38.8258 29.6117C39.1775 29.9633 39.375 30.4402 39.375 30.9375V37.5C39.375 37.9973 39.1775 38.4742 38.8258 38.8258C38.4742 39.1775 37.9973 39.375 37.5 39.375C29.0462 39.375 20.9387 36.0168 14.961 30.039C8.98325 24.0613 5.625 15.9538 5.625 7.5C5.625 7.00272 5.82254 6.52581 6.17417 6.17417C6.52581 5.82254 7.00272 5.625 7.5 5.625H14.0625C14.5598 5.625 15.0367 5.82254 15.3883 6.17417C15.74 6.52581 15.9375 7.00272 15.9375 7.5C15.9375 9.84375 16.3125 12.0938 17.0062 14.1938C17.2125 14.85 17.0625 15.5813 16.5375 16.1063L12.4125 20.2312Z" fill="#92592F"/>
</svg>
