<svg width="25" height="40" viewBox="0 0 25 40" fill="none" xmlns="http://www.w3.org/2000/svg">
<path d="M21.25 0H3.75C2.75544 0 1.80161 0.395088 1.09835 1.09835C0.395088 1.80161 0 2.75544 0 3.75L0 36.25C0 37.2446 0.395088 38.1984 1.09835 38.9016C1.80161 39.6049 2.75544 40 3.75 40H21.25C22.2446 40 23.1984 39.6049 23.9016 38.9016C24.6049 38.1984 25 37.2446 25 36.25V3.75C25 2.75544 24.6049 1.80161 23.9016 1.09835C23.1984 0.395088 22.2446 0 21.25 0ZM12.5 37.5C12.1721 37.4998 11.8475 37.435 11.5447 37.3093C11.2419 37.1836 10.9668 36.9996 10.7351 36.7676C10.2672 36.299 10.0046 35.6638 10.005 35.0017C10.0052 34.6738 10.07 34.3492 10.1957 34.0464C10.3214 33.7435 10.5054 33.4684 10.7374 33.2367C11.206 32.7688 11.8412 32.5062 12.5033 32.5067C13.1655 32.5071 13.8004 32.7706 14.2683 33.2391C14.7362 33.7076 14.9988 34.3428 14.9983 35.005C14.9979 35.6672 14.7344 36.302 14.2659 36.7699C13.7974 37.2378 13.1622 37.5004 12.5 37.5Z" fill="#92592F"/>
</svg>
